<svg height='100px' width='100px'  fill="#000000" xmlns="http://www.w3.org/2000/svg" xmlns:xlink="http://www.w3.org/1999/xlink" version="1.1" x="0px" y="0px" viewBox="0 0 100 100" style="enable-background:new 0 0 100 100;" xml:space="preserve"><g><path d="M56.0442924,15.2534647c-5.881279-5.5195379-13.5712662-8.2793074-21.653801-7.7625337   C20.4783535,8.3764029,8.9304533,19.4820633,7.5311894,33.3256302c-0.4084496,4.0328217,0,8.0040245,1.2134242,11.8033028   c0.5127983,1.6049805,2.2300758,2.4924393,3.8370428,1.9786491c1.6059732-0.5127983,2.4924383-2.2310715,1.9786463-3.8370438   c-0.9570246-2.9962921-1.2780209-6.1356926-0.9550371-9.3307419c1.1031122-10.9069023,10.2052832-19.6572685,21.1728058-20.3549137   c6.3751945-0.4104376,12.450264,1.7679615,17.0883064,6.1207848c4.6420174,4.3558044,7.1980591,10.2589474,7.1980591,16.6212215   c0,6.0045128-2.3165359,11.6711311-6.521286,15.9553833c-5.4777985,5.5811539-8.3031578,13.4997101-7.7516022,21.7253571   c0.0178909,0.2713013,0.0278282,0.5455933,0.0278282,0.8218689c0,3.3500824-1.3356628,6.4686127-3.7605209,8.7821655   c-2.4238663,2.3105774-5.6318359,3.5061111-8.9660187,3.3371658c-6.2619057-0.2951584-11.4385834-5.641777-11.5399513-11.9175949   c-0.0149059-0.9262161,0.0735416-1.8464661,0.2623615-2.7349243c0.3518047-1.6496964-0.6996307-3.2715683-2.3483372-3.6223831   c-1.6516876-0.3617401-3.2725677,0.6996307-3.6223831,2.3483429c-0.2862129,1.3396301-0.4193821,2.7210083-0.3975182,4.1073532   c0.1560259,9.5960846,7.7804222,17.4669418,17.357626,17.9191208c0.2991314,0.0139084,0.5962772,0.0208664,0.8934231,0.0208664   c4.7115822,0,9.1478844-1.7709427,12.5744896-5.0395355c3.6452408-3.4772873,5.6527061-8.1650162,5.6527061-13.2005768   c0-0.4154053-0.0139122-0.8268433-0.0417404-1.2323074c-0.441246-6.5838928,1.6954155-12.6341171,6.0164375-17.0376244   c5.3336983-5.4330788,8.270359-12.6182175,8.270359-20.2326775C65.170311,28.3765297,61.8440819,20.695488,56.0442924,15.2534647z"></path><path d="M20.2875443,64.6828461c1.1060944,0,2.2201385-0.2444687,3.2954254-0.7443504   c4.1133175-1.9160385,8.2783127-8.1709824,6.4775562-19.4932938c-0.2514305-1.5801315-0.6926746-3.1930618-1.3903198-5.0753098   c-0.2683239-0.7244759-0.5873337-1.8395157-0.5873337-3.0430031c0-2.3205109,0.9212494-4.4859886,2.5938053-6.0959377   c1.671566-1.6099472,3.8837509-2.4477177,6.199295-2.3582764c4.4979172,0.1709328,8.2196808,4.1252441,8.1262627,8.635088   c-0.0407448,1.9538002-0.7642288,3.8459854-2.037281,5.3287277c-1.0991364,1.2790146-0.9530487,3.2069778,0.3259659,4.3051224   c1.278019,1.0981407,3.2069778,0.9530487,4.3051224-0.3259659c2.1952934-2.5560417,3.4415092-5.8166847,3.5100822-9.181675   c0.1639748-7.8957005-6.1158142-14.5630722-13.9976044-14.8631992c-3.9930687-0.1450939-7.788372,1.2899475-10.6664028,4.0616417   c-2.8790245,2.7716942-4.4651222,6.4984264-4.4651222,10.4944744c0,2.1078415,0.5257187,3.9702148,0.9669628,5.1627693   c0.5545387,1.4966545,0.8993855,2.7408867,1.0862179,3.9135628c1.2501945,7.8619156-1.1925545,12.1461639-3.0251122,12.999836   c-0.3180141,0.1460876-1.2819958,0.5952835-2.6057301-0.9331741c-1.1041069-1.274044-3.0320692-1.41119-4.3071089-0.308075   c-1.274045,1.1041031-1.4121828,3.033062-0.3080769,4.307106C15.6077623,63.5727768,17.9292679,64.6828461,20.2875443,64.6828461z"></path><path d="M83.8188782,8.1627369c-1.005722-1.3525558-2.9167862-1.635787-4.2713318-0.6300664   c-1.3535461,1.0047269-1.635788,2.9177823-0.6300659,4.2713313c10.2470245,13.7958651,10.2470245,36.245697,0,50.0415611   c-1.005722,1.35355-0.7234802,3.2666054,0.6300659,4.2713356c0.5475845,0.406456,1.1856003,0.6022339,1.8186493,0.6022339   c0.9321747,0,1.8534241-0.4263382,2.4526825-1.2322998C95.5565948,49.6825027,95.5565948,23.9670601,83.8188782,8.1627369z"></path><path d="M72.9716034,18.6562195c-1.0057144-1.353548-2.917778-1.6347923-4.2713318-0.6300659   c-1.3535461,1.0057201-1.6357803,2.9177818-0.6300659,4.2713318c5.949852,8.0099888,5.949852,21.0446053,0,29.0545959   c-1.0057144,1.3535461-0.7234802,3.2656097,0.6300659,4.2713318c0.5475845,0.4064598,1.1856003,0.6022377,1.8186493,0.6022377   c0.9321823,0,1.8534241-0.4263382,2.4526825-1.2323074C80.5393524,44.8049583,80.5393524,28.8446064,72.9716034,18.6562195z"></path></g></svg>