<svg height='100px' width='100px'  fill="#000000" xmlns:dc="http://purl.org/dc/elements/1.1/" xmlns:cc="http://creativecommons.org/ns#" xmlns:rdf="http://www.w3.org/1999/02/22-rdf-syntax-ns#" xmlns:svg="http://www.w3.org/2000/svg" xmlns="http://www.w3.org/2000/svg" xmlns:sodipodi="http://sodipodi.sourceforge.net/DTD/sodipodi-0.dtd" xmlns:inkscape="http://www.inkscape.org/namespaces/inkscape" viewBox="0 0 1152.7139 1152.44" version="1.1" x="0px" y="0px"><g transform="translate(7850.3774,67.982608)"><path style="" d="m -7327.1831,1082.7146 c -109.2119,-10.8404 -207.5312,-48.9146 -293.7072,-113.73822 -130.5933,-98.2354 -211.7055,-244.06491 -227.5093,-409.03308 -3.7012,-38.63602 -2.09,-95.62709 3.8495,-136.16132 28.5775,-195.02773 157.0086,-363.428413 338.0348,-443.236013 45.5207,-20.0684 99.2333,-35.5785 147.9127,-42.7115 52.931,-7.7561 116.2436,-7.7561 169.1746,0 195.0277,28.5775 363.4284,157.0086 443.236,338.034803 20.0684,45.52069 35.5785,99.23333 42.7115,147.91271 7.7561,52.93098 7.7561,116.2436 0,169.17458 -21.9711,149.94239 -103.9846,287.03282 -226.1128,377.96112 -85.7805,63.86632 -184.1151,101.41942 -292.848,111.83592 -23.8926,2.2888 -81.506,2.2674 -104.7418,-0.039 z m 133.1678,-428.72033 0,-64.375 64.375,0 64.375,0 0,-80 0,-80 -64.375,0 -64.375,0 0,-64.375 0,-64.375 -80,0 -80,0 0,64.375 0,64.375 -64.375,0 -64.375,0 0,80 0,80 64.375,0 64.375,0 0,64.375 0,64.375 80,0 80,0 0,-64.375 z" fill="#000000"></path></g></svg>