<svg height='100px' width='100px'  fill="#000000" xmlns:dc="http://purl.org/dc/elements/1.1/" xmlns:cc="http://creativecommons.org/ns#" xmlns:rdf="http://www.w3.org/1999/02/22-rdf-syntax-ns#" xmlns:svg="http://www.w3.org/2000/svg" xmlns="http://www.w3.org/2000/svg" xmlns:sodipodi="http://sodipodi.sourceforge.net/DTD/sodipodi-0.dtd" xmlns:inkscape="http://www.inkscape.org/namespaces/inkscape" viewBox="0 0 1152.7144 1152.44" version="1.1" x="0px" y="0px"><g transform="translate(-9077.1926,16963.078)"><path style="" d="m 9600.3867,-15812.381 c -109.212,-10.84 -207.531,-48.914 -293.707,-113.738 -130.593,-98.235 -211.706,-244.065 -227.509,-409.033 -3.702,-38.636 -2.09,-95.627 3.849,-136.161 28.578,-195.028 157.009,-363.429 338.035,-443.236 45.521,-20.069 99.233,-35.579 147.913,-42.712 52.931,-7.756 116.243,-7.756 169.174,0 195.028,28.578 363.4293,157.009 443.2363,338.035 20.069,45.521 35.579,99.233 42.712,147.913 7.756,52.931 7.756,116.243 0,169.174 -21.971,149.943 -103.985,287.033 -226.1133,377.961 -85.781,63.867 -184.115,101.42 -292.848,111.836 -23.893,2.289 -81.506,2.268 -104.742,-0.04 z m 140.024,-376.554 c 35.051,-35.566 93.37,-94.442 129.596,-130.835 l 65.865,-66.168 -130.082,-131.019 c -71.546,-72.061 -130.705,-131.019 -131.465,-131.019 -0.76,0 -20.9,19.512 -44.755,43.36 l -43.373,43.36 58.366,57.878 58.367,57.879 -165.312,0.01 -165.313,0.01 0,61.25 0,61.25 163.432,0 163.433,0 -55.931,55.941 -55.931,55.941 43.434,43.434 c 23.888,23.889 43.997,43.424 44.686,43.412 0.688,-0.01 29.931,-29.121 64.983,-64.687 z" fill="#000000"></path></g></svg>