<svg height='100px' width='100px'  fill="#ef7782" xmlns="http://www.w3.org/2000/svg" xmlns:xlink="http://www.w3.org/1999/xlink" version="1.1" x="0px" y="0px" viewBox="-434 236 90 90" style="enable-background:new -434 236 90 90;" xml:space="preserve"><style type="text/css">
	.st0{fill:none;stroke:#ef7782;stroke-miterlimit:10;}
	.st1{stroke:#ef7782;stroke-miterlimit:10;}
</style><path class="st0" d="M-1655,1023"></path><line class="st0" x1="-1654" y1="1023" x2="-1654" y2="1023"></line><path class="st1" d="M-389,251.4c-16.4,0-29.6,13.3-29.6,29.6s13.3,29.6,29.6,29.6s29.6-13.3,29.6-29.6S-372.6,251.4-389,251.4z   M-375.3,274l-19.2,19.2l-8.2-8.2c-1-1-1-2.6,0-3.5c1-1,2.6-1,3.5,0l4.7,4.7l15.7-15.7c1-1,2.6-1,3.5,0  C-374.3,271.5-374.3,273.1-375.3,274z"></path></svg>