<svg viewBox="0 0 8.4666667 8.4666669" xmlns="http://www.w3.org/2000/svg" fill="black" >
  <g>
    <path d="m 4.2333268,5.2288223e-4 c -1.122514,0 -2.19936,0.44597959777 -2.993099,1.23971761777 -0.79373703,0.7937378 -1.2397160328,1.8705841 -1.2397160328,2.993099 0,1.1225149 0.4459790028,2.1993611 1.2397160328,2.993099 0.793739,0.7937381 1.870585,1.2397176 2.993099,1.2397176 a 0.26457835,0.26457835 0 0 0 5.29e-4,0 c 0.843994,-0.00172 1.666716,-0.2558643 2.363679,-0.7276042 l 1.491382,0.7022828 A 0.26457835,0.26457835 0 0 0 8.4408338,8.0889182 L 7.7385498,6.5985698 c 0.471837,-0.6971133 0.726001,-1.5205377 0.727605,-2.3647136 a 0.26457835,0.26457835 0 0 0 0,-5.291e-4 c 0,-1.1225149 -0.445979,-2.1993611 -1.239719,-2.993099 C 6.4326988,0.44649005 5.3558528,5.0970223e-4 4.2333368,5.1044223e-4 Z"></path>
  </g>
</svg>
