<svg height='100px' width='100px'  fill="#000000" xmlns="http://www.w3.org/2000/svg" data-name="Layer 1" viewBox="0 0 100 100" x="0px" y="0px"><title>coronavirus icon set</title><path d="M12.3,89.94H87.7A7.27,7.27,0,0,0,94,79l-37.7-65.3a7.28,7.28,0,0,0-12.55-.11l-.07.11L6,79A7.28,7.28,0,0,0,12.3,89.94Zm-3-9L47,15.62a3.46,3.46,0,0,1,6,0l37.7,65.3a3.46,3.46,0,0,1-3,5.18H12.3a3.45,3.45,0,0,1-3-5.18Z"></path><path d="M48.07,65.83h3.86a1.91,1.91,0,0,0,1.91-1.76l2-24.65a1.91,1.91,0,0,0-1.91-2.07h-7.9a1.91,1.91,0,0,0-1.91,2.07l2,24.65A1.91,1.91,0,0,0,48.07,65.83Zm3.8-24.65L50.17,62h-.34l-1.7-20.82Z"></path><path d="M50,69.87a5.39,5.39,0,1,0,5.39,5.39A5.39,5.39,0,0,0,50,69.87Zm0,6.94a1.56,1.56,0,1,1,1.56-1.56A1.56,1.56,0,0,1,50,76.81Z"></path></svg>