<svg height='100px' width='100px'  fill="black" xmlns:dc="http://purl.org/dc/elements/1.1/" xmlns:cc="http://creativecommons.org/ns#" xmlns:rdf="http://www.w3.org/1999/02/22-rdf-syntax-ns#" xmlns:svg="http://www.w3.org/2000/svg" xmlns="http://www.w3.org/2000/svg" xmlns:sodipodi="http://sodipodi.sourceforge.net/DTD/sodipodi-0.dtd" xmlns:inkscape="http://www.inkscape.org/namespaces/inkscape" viewBox="0 0 1152.714 1152.4399" version="1.1" x="0px" y="0px"><g transform="translate(-14033.611,5742.2518)"><path style="" d="m 14556.805,-4591.5546 c -109.212,-10.8404 -207.531,-48.9146 -293.707,-113.7382 -130.593,-98.2354 -211.706,-244.0649 -227.509,-409.0331 -3.702,-38.636 -2.09,-95.6271 3.849,-136.1613 28.578,-195.0278 157.009,-363.4284 338.035,-443.2361 45.521,-20.0684 99.233,-35.5785 147.913,-42.7115 52.931,-7.756 116.243,-7.756 169.174,0 195.028,28.5775 363.429,157.0086 443.236,338.0348 20.069,45.5207 35.579,99.2334 42.712,147.9128 7.756,52.9309 7.756,116.2436 0,169.1745 -21.971,149.9424 -103.985,287.0328 -226.113,377.9612 -85.78,63.8663 -184.115,101.4194 -292.848,111.8359 -23.893,2.2888 -81.506,2.2674 -104.742,-0.039 z m 293.168,-382.1563 0,-49.061 -190.936,-190.939 c -155.722,-155.7244 -191.535,-190.9391 -194.182,-190.9391 -4.775,0 -94.882,90.1012 -94.882,94.876 0,2.6472 35.224,38.4709 190.936,194.185 l 190.936,190.9391 49.064,0 49.064,0 0,-49.061 z"></path></g></svg>
