<svg height='100px' width='100px'  fill="#000000" xmlns="http://www.w3.org/2000/svg" xmlns:xlink="http://www.w3.org/1999/xlink" viewBox="0 0 16 16" version="1.1" x="0px" y="0px"><title>001-Exit right</title><desc>Created with Sketch.</desc><g stroke="none" stroke-width="1" fill="none" fill-rule="evenodd"><g fill="#000000"><polygon points="6 12 10 8 6 4 6 7 0 7 0 9 6 9"></polygon><path d="M8,0 C5.387,0 2.932,1.281 1.435,3.427 L3.075,4.572 C4.199,2.961 6.04,2 8,2 C11.309,2 14,4.691 14,8 C14,11.309 11.309,14 8,14 C6.04,14 4.198,13.039 3.075,11.428 L1.435,12.573 C2.932,14.719 5.386,16 8,16 C12.411,16 16,12.411 16,8 C16,3.589 12.411,0 8,0"></path></g></g></svg>