<svg height='100px' width='100px'  fill="#000000" xmlns="http://www.w3.org/2000/svg" xmlns:xlink="http://www.w3.org/1999/xlink" viewBox="0 0 24 20" version="1.1" x="0px" y="0px"><title>hide</title><desc>Created with Sketch.</desc><g stroke="none" stroke-width="1" fill="none" fill-rule="evenodd"><g transform="translate(-13.000000, -252.000000)" fill-rule="nonzero" fill="#000000"><path d="M23.0242641,265.827017 L23.3933718,264.897631 C23.8003933,265.05928 24.2362368,265.143353 24.6845539,265.143353 C26.6175505,265.143353 28.1845539,263.57635 28.1845539,261.643353 C28.1845539,261.298659 28.134871,260.961176 28.0381738,260.638067 L28.9961921,260.35136 C29.1206545,260.767245 29.1845539,261.201297 29.1845539,261.643353 C29.1845539,264.128635 27.1698352,266.143353 24.6845539,266.143353 C24.1093197,266.143353 23.5482738,266.035129 23.0242641,265.827017 Z M14.6770064,261.585414 C14.5436062,261.729582 14.4188293,261.868111 14.3029882,262 C14.4188293,262.131889 14.5436062,262.270418 14.6770064,262.414586 C15.4047729,263.201099 16.2326187,263.988366 17.1421955,264.721365 C17.6871615,265.160535 18.2458855,265.566925 18.8158964,265.933978 L18.274495,266.774742 C15.0915704,264.725131 13,262 13,262 C13,262 18.372583,255 25,255 C26.4247391,255 27.7914862,255.323504 29.0593309,255.831421 L28.2926453,256.609374 C27.1845295,256.209553 26.084929,256 25,256 C22.3669306,256 19.6951589,257.221285 17.1421955,259.278635 C16.2326187,260.011634 15.4047729,260.798901 14.6770064,261.585414 Z M35.3229936,262.414586 C35.4563938,262.270418 35.5811707,262.131889 35.6970118,262 C35.5811707,261.868111 35.4563938,261.729582 35.3229936,261.585414 C34.5952271,260.798901 33.7673813,260.011634 32.8578045,259.278635 C32.4767239,258.971535 32.0883877,258.68007 31.6936737,258.406604 L32.2631679,257.584609 C35.1418829,259.579038 37,262 37,262 C37,262 31.627417,269 25,269 C23.7115873,269 22.4705997,268.735443 21.3072918,268.309192 L22.1068057,267.526557 C23.080254,267.837905 24.0459344,268 25,268 C27.6330694,268 30.3048411,266.778715 32.8578045,264.721365 C33.7673813,263.988366 34.5952271,263.201099 35.3229936,262.414586 Z M26.9840888,257.960017 L26.54267,258.857318 C26.0669991,258.623316 25.5428104,258.5 25,258.5 C23.0670034,258.5 21.5,260.067003 21.5,262 C21.5,262.500262 21.604713,262.984834 21.8046462,263.430613 L20.8922141,263.839842 C20.6348344,263.265977 20.5,262.642015 20.5,262 C20.5,259.514719 22.5147186,257.5 25,257.5 C25.6967212,257.5 26.3718242,257.658819 26.9840888,257.960017 Z M33.7178245,252.724216 L34.4249312,253.431323 L16.2291055,271.627149 L15.5219987,270.920042 L33.7178245,252.724216 Z"></path></g></g></svg>