<svg height='100px' width='100px'  fill="#000000" xmlns="http://www.w3.org/2000/svg" xmlns:xlink="http://www.w3.org/1999/xlink" viewBox="0 0 24 14" version="1.1" x="0px" y="0px"><title>show</title><desc>Created with Sketch.</desc><g stroke="none" stroke-width="1" fill="none" fill-rule="evenodd"><g transform="translate(-728.000000, -204.000000)" fill-rule="nonzero" fill="#000000"><path d="M750.322994,210.585414 C749.595227,209.798901 748.767381,209.011634 747.857805,208.278635 C745.304841,206.221285 742.633069,205 740,205 C737.366931,205 734.695159,206.221285 732.142195,208.278635 C731.232619,209.011634 730.404773,209.798901 729.677006,210.585414 C729.543606,210.729582 729.418829,210.868111 729.302988,211 C729.418829,211.131889 729.543606,211.270418 729.677006,211.414586 C730.404773,212.201099 731.232619,212.988366 732.142195,213.721365 C734.695159,215.778715 737.366931,217 740,217 C742.633069,217 745.304841,215.778715 747.857805,213.721365 C748.767381,212.988366 749.595227,212.201099 750.322994,211.414586 C750.456394,211.270418 750.581171,211.131889 750.697012,211 C750.581171,210.868111 750.456394,210.729582 750.322994,210.585414 Z M740,218 C733.372583,218 728,211 728,211 C728,211 733.372583,204 740,204 C746.627417,204 752,211 752,211 C752,211 746.627417,218 740,218 Z M740,215.5 C742.485281,215.5 744.5,213.485281 744.5,211 C744.5,208.514719 742.485281,206.5 740,206.5 C737.514719,206.5 735.5,208.514719 735.5,211 C735.5,213.485281 737.514719,215.5 740,215.5 Z M740,214.5 C738.067003,214.5 736.5,212.932997 736.5,211 C736.5,209.067003 738.067003,207.5 740,207.5 C741.932997,207.5 743.5,209.067003 743.5,211 C743.5,212.932997 741.932997,214.5 740,214.5 Z"></path></g></g></svg>