<svg height='100px' width='100px'  fill="#000000" xmlns="http://www.w3.org/2000/svg" xmlns:xlink="http://www.w3.org/1999/xlink" version="1.1" x="0px" y="0px" viewBox="0 0 24 24" enable-background="new 0 0 24 24" xml:space="preserve"><g><path d="M4.655,6.26h15.86c0.007,0.001,0.015,0,0.02,0c0.222,0,0.4-0.179,0.4-0.4c0-0.082-0.024-0.158-0.066-0.221   c-0.284-0.921-1.271-2.181-2.998-2.181h-4.989C12.684,2.501,12.22,1.62,10.751,1.62H2.17c-0.543,0-1.061,0.218-1.455,0.614   C0.294,2.656,0.053,3.247,0.053,3.856V16.91c0,0.208,0.161,0.382,0.369,0.399c0.011,0,0.021,0.001,0.031,0.001   c0.195,0,0.364-0.142,0.396-0.337l1.362-8.599C2.392,7.228,3.512,6.26,4.655,6.26z M0.854,11.829V3.855   C0.853,3.457,1.009,3.072,1.28,2.8C1.524,2.555,1.841,2.42,2.17,2.42h8.581c0.9,0,1.228,0.35,1.4,1.498   c0.029,0.196,0.197,0.34,0.396,0.34h5.324c1.108,0,1.743,0.664,2.049,1.202H4.655c-1.54,0-2.991,1.251-3.234,2.789L0.854,11.829z"></path><path d="M21.45,7.52H6.195c-1.54,0-2.991,1.251-3.234,2.789L1.123,21.917c-0.018,0.116,0.016,0.233,0.092,0.322   c0.075,0.089,0.187,0.14,0.304,0.14h20.158c0.196,0,0.364-0.143,0.396-0.337l1.839-11.608c0.122-0.776-0.072-1.509-0.547-2.065   C22.896,7.822,22.217,7.52,21.45,7.52z M23.12,10.309L21.335,21.58H1.987l1.765-11.146c0.181-1.146,1.3-2.114,2.443-2.114H21.45   c0.528,0,0.992,0.202,1.306,0.569C23.076,9.264,23.206,9.769,23.12,10.309z"></path><path d="M12.414,11.841c-0.298,0-0.584,0.067-0.85,0.2c0,0,0,0,0,0l-0.001,0c-0.647,0.325-1.05,0.976-1.05,1.699   c0,0.221,0.18,0.4,0.4,0.4s0.4-0.179,0.4-0.4c0-0.419,0.232-0.795,0.608-0.984c0.154-0.077,0.319-0.116,0.492-0.116   c0.606,0,1.1,0.494,1.1,1.1c0,0.607-0.493,1.101-1.1,1.101c-0.221,0-0.4,0.179-0.4,0.4v1.306c0,0.221,0.18,0.4,0.4,0.4   s0.4-0.179,0.4-0.4v-0.951c0.856-0.185,1.5-0.946,1.5-1.856C14.314,12.693,13.462,11.841,12.414,11.841z"></path><path d="M12.414,17.538c-0.221,0-0.4,0.179-0.4,0.4v0.218c0,0.221,0.18,0.4,0.4,0.4s0.4-0.179,0.4-0.4v-0.218   C12.814,17.717,12.635,17.538,12.414,17.538z"></path></g></svg>