<svg height='100px' width='100px'  fill="#ef7782" xmlns="http://www.w3.org/2000/svg" xmlns:xlink="http://www.w3.org/1999/xlink" version="1.1" x="0px" y="0px" viewBox="0 0 100 100" style="enable-background:new 0 0 100 100;" xml:space="preserve"><g><path d="M56.1,47c0,5-4.1,9.1-9.1,9.1S37.9,52,37.9,47s4.1-9.1,9.1-9.1S56.1,42,56.1,47z M85,50c0,19.3-15.7,35-35,35   S15,69.3,15,50s15.7-35,35-35S85,30.7,85,50z M67.1,62.9l-7.6-7.6c1.6-2.4,2.5-5.2,2.5-8.3c0-8.3-6.7-15-15-15s-15,6.7-15,15   s6.7,15,15,15c3.1,0,5.9-0.9,8.3-2.5l7.6,7.6c1.2,1.2,3.1,1.2,4.2,0C68.3,65.9,68.3,64.1,67.1,62.9z"></path></g></svg>