<svg height='100px' width='100px'  fill="#000000" xmlns:dc="http://purl.org/dc/elements/1.1/" xmlns:cc="http://creativecommons.org/ns#" xmlns:rdf="http://www.w3.org/1999/02/22-rdf-syntax-ns#" xmlns:svg="http://www.w3.org/2000/svg" xmlns="http://www.w3.org/2000/svg" xmlns:sodipodi="http://sodipodi.sourceforge.net/DTD/sodipodi-0.dtd" xmlns:inkscape="http://www.inkscape.org/namespaces/inkscape" viewBox="0 0 1152.7139 1152.44" version="1.1" x="0px" y="0px"><g transform="translate(2025.5107,8960.8558)"><path style="" d="m -1502.3164,-7810.1586 c -109.2119,-10.8404 -207.5312,-48.9146 -293.7072,-113.7382 -130.5934,-98.2354 -211.7055,-244.0649 -227.5093,-409.0331 -3.7012,-38.636 -2.0901,-95.6271 3.8495,-136.1613 28.5775,-195.0277 157.0086,-363.4284 338.0348,-443.236 45.5207,-20.0684 99.2333,-35.5785 147.9127,-42.7115 52.931,-7.7561 116.2436,-7.7561 169.1746,0 195.0277,28.5775 363.4284,157.0086 443.236,338.0348 20.06836,45.5207 35.57851,99.2333 42.71154,147.9127 7.75601,52.931 7.75601,116.2436 0,169.1746 -21.97115,149.9424 -103.98461,287.0328 -226.11284,377.9611 -85.7805,63.8663 -184.1151,101.4194 -292.848,111.8359 -23.8926,2.2889 -81.506,2.2674 -104.7418,-0.039 z m 213.1678,-510.5953 0,-163.75 22.5,0 22.5,0 0,-30.625 0,-30.625 -205.625,0 -205.625,0 0,30.625 0,30.625 21.25,0 21.25,0 0,163.75 0,163.75 161.875,0 161.875,0 0,-163.75 z m -271.25,-26.875 0,-138.125 22.5,0 22.5,0 0,138.125 0,138.125 -22.5,0 -22.5,0 0,-138.125 z m 88.75,0 0,-138.125 22.5,0 22.5,0 0,138.125 0,138.125 -22.5,0 -22.5,0 0,-138.125 z m 87.5,0 0,-138.125 21.25,0 21.25,0 0,138.125 0,138.125 -21.25,0 -21.25,0 0,-138.125 z m 43.75,-268.125 0,-27.5 -108.75,0 -108.75,0 0,27.5 0,27.5 108.75,0 108.75,0 0,-27.5 z" fill="#000000"></path></g></svg>