<svg height='100px' width='100px'  fill="#000000" xmlns="http://www.w3.org/2000/svg" viewBox="0 0 100 100" x="0px" y="0px"><title>progress </title><g data-name="Layer 2"><path d="M8.39,40l2.9,5a3.49,3.49,0,0,0,4.26,1.53l5.9-2.21a17.72,17.72,0,0,0,2.64,1.52l1,6.22A3.49,3.49,0,0,0,28.59,55h5.8a3.48,3.48,0,0,0,3.45-2.92l1-6.23a17.23,17.23,0,0,0,2.64-1.52l5.91,2.21A3.48,3.48,0,0,0,51.69,45l2.9-5a3.48,3.48,0,0,0-.81-4.45l-4.86-4C49,31,49,30.5,49,30s0-1-.07-1.53l4.86-4A3.5,3.5,0,0,0,54.59,20l-2.9-5a3.49,3.49,0,0,0-4.26-1.52l-5.91,2.21a17.23,17.23,0,0,0-2.64-1.52l-1-6.23A3.48,3.48,0,0,0,34.39,5h-5.8a3.49,3.49,0,0,0-3.46,2.92l-1,6.23a17.72,17.72,0,0,0-2.64,1.52l-5.9-2.21A3.49,3.49,0,0,0,11.29,15l-2.9,5a3.51,3.51,0,0,0,.8,4.46l4.87,4C14,29,14,29.5,14,30s0,1,.07,1.53l-4.87,4A3.51,3.51,0,0,0,8.39,40Zm9.49-5.13a3.49,3.49,0,0,0,1.23-3.19,11.68,11.68,0,0,1,0-3.34,3.49,3.49,0,0,0-1.23-3.19l-4.53-3.73L15,18.59l5.49,2.05a3.46,3.46,0,0,0,3.36-.52,12.78,12.78,0,0,1,2.92-1.67,3.49,3.49,0,0,0,2.14-2.66l1-5.79h3.26l1,5.79a3.49,3.49,0,0,0,2.14,2.66,12.37,12.37,0,0,1,2.92,1.67,3.47,3.47,0,0,0,3.37.52L48,18.59l1.63,2.82L45.1,25.14a3.47,3.47,0,0,0-1.24,3.19A11.1,11.1,0,0,1,44,30a12.24,12.24,0,0,1-.12,1.66,3.45,3.45,0,0,0,1.23,3.2l4.52,3.73L48,41.41l-5.48-2a3.47,3.47,0,0,0-3.37.52,12.37,12.37,0,0,1-2.92,1.67,3.49,3.49,0,0,0-2.14,2.66l-1,5.79H29.86l-1-5.79a3.5,3.5,0,0,0-2.13-2.66,12.64,12.64,0,0,1-2.93-1.67,3.46,3.46,0,0,0-3.36-.52l-5.49,2-1.63-2.82Zm13.61,5.62A10.48,10.48,0,1,0,21,30,10.49,10.49,0,0,0,31.49,40.48Zm0-16A5.48,5.48,0,1,1,26,30,5.49,5.49,0,0,1,31.49,24.52Zm56.72,59,3.38-5.87A3.65,3.65,0,0,0,90.75,73l-5.86-4.82a17.52,17.52,0,0,0,0-3.92l5.86-4.82a3.65,3.65,0,0,0,.84-4.66L88.2,48.94a3.65,3.65,0,0,0-4.46-1.6L76.65,50a19.71,19.71,0,0,0-3.4-2L72,40.56a3.64,3.64,0,0,0-3.61-3.06H61.61A3.64,3.64,0,0,0,58,40.56l-1.25,7.49a19.71,19.71,0,0,0-3.4,2l-7.09-2.66a3.66,3.66,0,0,0-4.47,1.6l-3.38,5.87a3.65,3.65,0,0,0,.84,4.66l5.86,4.82a17.52,17.52,0,0,0,0,3.92L39.25,73a3.65,3.65,0,0,0-.84,4.66l3.38,5.87a3.66,3.66,0,0,0,4.47,1.6l7.09-2.66a19.71,19.71,0,0,0,3.4,2L58,91.94A3.64,3.64,0,0,0,61.61,95h6.78A3.64,3.64,0,0,0,72,91.94l1.25-7.49a19.71,19.71,0,0,0,3.4-2l7.09,2.66A3.66,3.66,0,0,0,88.21,83.56Zm-3.77-3.48-6.73-2.52a3.66,3.66,0,0,0-3.53.54,14.79,14.79,0,0,1-3.5,2,3.63,3.63,0,0,0-2.24,2.78L67.26,90H62.74l-1.18-7.1a3.63,3.63,0,0,0-2.24-2.78,15.06,15.06,0,0,1-3.51-2,3.63,3.63,0,0,0-3.52-.54l-6.73,2.52L43.3,76.17l5.55-4.57a3.63,3.63,0,0,0,1.3-3.35,13.41,13.41,0,0,1,0-4,3.63,3.63,0,0,0-1.3-3.35L43.3,56.33l2.26-3.91,6.73,2.52a3.63,3.63,0,0,0,3.53-.54,14.79,14.79,0,0,1,3.5-2,3.63,3.63,0,0,0,2.24-2.78l1.18-7.1h4.52l1.18,7.1a3.63,3.63,0,0,0,2.24,2.78,15.06,15.06,0,0,1,3.51,2,3.63,3.63,0,0,0,3.52.54l6.73-2.52,2.26,3.91L81.15,60.9a3.63,3.63,0,0,0-1.3,3.35,13.41,13.41,0,0,1,0,4,3.63,3.63,0,0,0,1.3,3.35l5.55,4.57ZM65,54.44A11.81,11.81,0,1,0,76.81,66.25,11.83,11.83,0,0,0,65,54.44Zm0,18.62a6.81,6.81,0,1,1,6.81-6.81A6.81,6.81,0,0,1,65,73.06Z"></path></g></svg>