<svg height='100px' width='100px'  fill="#000000" xmlns="http://www.w3.org/2000/svg" xmlns:xlink="http://www.w3.org/1999/xlink" version="1.1" x="0px" y="0px" viewBox="0 0 100 100" style="enable-background:new 0 0 100 100;" xml:space="preserve"><g><path d="M21.1,13.5v9.2v31.7v32.1h8V57.9c5.4-0.4,12.4,0.4,16.8,2l2,0.7c2.3,0.8,4.6,1.2,6.8,1.2c2.9,0,5.7-0.5,8.3-1.2   c4.4-1.1,8.9-2.6,13.6-4.6c1.5-0.6,2.4-2.1,2.4-3.7V20.6c0-1.3-0.7-2.6-1.8-3.3c-1.1-0.7-2.5-0.9-3.8-0.3   c-4.3,1.8-8.4,3.2-12.4,4.2c-3.5,0.8-7.2,1.5-10.4,0.3l-2-0.7c-5.3-1.9-13.1-2.8-19.5-2.5v-4.7H21.1z M45.8,28.1l2,0.7   c5.3,1.9,10.6,1.1,15.1,0c2.7-0.6,5.3-1.4,8.1-2.4v23.2C67.5,51,64.2,52,61,52.8c-3.5,0.8-7.2,1.5-10.4,0.3l-2-0.7   c-4.5-1.6-10.8-2.6-16.5-2.6c-1,0-2,0-3,0.1V26.2C34.5,25.8,41.5,26.5,45.8,28.1z"></path></g></svg>